<?xml version="1.0" encoding="utf-8"?>
<!-- Generator: Adobe Illustrator 21.0.0, SVG Export Plug-In . SVG Version: 6.00 Build 0)  -->
<svg version="1.1" id="Layer_1" xmlns="http://www.w3.org/2000/svg" xmlns:xlink="http://www.w3.org/1999/xlink" x="0px" y="0px"
	 viewBox="0 0 24 24" style="enable-background:new 0 0 24 24;" xml:space="preserve">
<style type="text/css">
	.st0{fill:#009ADF;}
</style>
<title>icon</title>
<g id="browse">
	<path class="st0" d="M14.5,13h-5v-2c0-1.3-0.2-2.5-0.7-3.7C8.6,6.8,8.5,6.2,8.6,5.6c0.1-1.7,1.4-3,3-3.1c1.9-0.3,3.6,1.1,3.9,3
		c0,0.2,0,0.3,0,0.5c0,0.5-0.1,1-0.3,1.5c-0.5,1.1-0.7,2.3-0.7,3.5V13z M10.5,13h3v-2c-0.1-1.3,0.2-2.7,0.8-3.9
		c0.1-0.3,0.2-0.7,0.2-1.1c0-1.4-1.1-2.5-2.5-2.5c-0.1,0-0.3,0-0.4,0c-1.1,0-2,1-2.1,2.1C9.4,6.1,9.5,6.5,9.6,7
		c0.6,1.3,0.9,2.6,0.9,4V13z"/>
	<path class="st0" d="M18.5,18h-14v-3c0-1.1,0.9-2,1.9-2h11.1c1.1,0,2,0.8,2,1.9V15v3H18.5z M5.5,17h13v-2c0.1-0.5-0.3-0.9-0.8-1
		c-0.1,0-0.1,0-0.2,0h-11c-0.5-0.1-0.9,0.3-1,0.8c0,0.1,0,0.1,0,0.2V17z"/>
	<rect x="5.5" y="20" class="st0" width="13" height="1"/>
</g>
</svg>
